<svg id="svg" version="1.1" xmlns="http://www.w3.org/2000/svg" xmlns:xlink="http://www.w3.org/1999/xlink" width="400" height="113.05555555555556" viewBox="0, 0, 400,113.05555555555556"><g id="svgg"><path id="path0" d="M280.276 0.305 C 279.878 0.744,279.854 80.532,280.250 82.404 C 281.329 87.497,284.309 90.770,289.417 92.472 L 290.750 92.917 309.917 92.917 L 329.083 92.917 330.499 92.454 C 335.563 90.799,338.467 87.503,339.858 81.833 C 340.194 80.467,340.190 39.050,339.855 37.583 C 339.370 35.464,338.650 33.681,337.772 32.425 C 336.619 30.775,334.644 28.883,333.384 28.222 C 331.875 27.428,331.648 27.323,330.500 26.879 C 329.607 26.533,301.322 26.322,300.448 26.655 L 300.000 26.825 300.000 33.159 L 300.000 39.492 300.413 39.763 C 300.782 40.005,301.934 40.036,311.205 40.059 C 321.450 40.083,321.597 40.088,322.668 40.453 C 324.519 41.083,325.447 41.991,325.927 43.644 C 326.293 44.904,326.298 74.141,325.932 75.715 C 325.507 77.541,324.235 78.785,322.431 79.140 C 320.926 79.435,298.575 79.399,297.321 79.099 C 296.451 78.891,295.000 78.102,295.000 77.837 C 295.000 77.771,294.849 77.544,294.665 77.331 C 294.480 77.119,294.162 76.451,293.957 75.847 L 293.583 74.750 293.500 37.651 C 293.430 6.541,293.380 0.507,293.188 0.276 C 292.819 -0.169,280.680 -0.142,280.276 0.305 M387.575 26.520 C 386.193 26.746,386.268 25.075,386.377 53.389 C 386.479 79.709,386.504 78.874,385.628 79.242 C 384.986 79.512,366.355 79.425,364.594 79.143 C 362.638 78.831,361.310 77.741,360.660 75.917 C 360.461 75.356,360.409 71.421,360.337 51.194 L 360.250 27.137 359.857 26.819 C 359.486 26.518,359.124 26.500,353.576 26.500 C 347.635 26.500,346.975 26.559,346.761 27.112 C 346.496 27.795,346.661 81.513,346.931 82.583 C 348.199 87.604,351.242 90.850,356.194 92.461 L 357.583 92.913 371.828 92.998 L 386.074 93.083 386.276 93.490 C 386.623 94.186,386.082 96.282,385.287 97.318 C 383.792 99.266,383.439 99.311,369.893 99.275 C 361.070 99.251,360.688 99.263,360.351 99.567 C 359.871 100.001,359.792 112.268,360.266 112.742 C 360.507 112.983,361.934 113.004,375.058 112.962 L 389.583 112.916 390.833 112.450 C 391.991 112.018,393.858 111.117,394.249 110.802 C 394.341 110.727,394.833 110.332,395.341 109.924 C 397.105 108.508,398.585 106.325,399.472 103.833 L 399.917 102.583 399.960 64.760 C 399.990 38.351,399.950 26.883,399.827 26.760 C 399.629 26.562,388.633 26.347,387.575 26.520 M27.037 54.259 C 26.509 54.629,26.449 63.751,26.971 64.224 C 27.459 64.666,36.322 64.639,36.724 64.195 C 37.188 63.683,37.136 54.803,36.667 54.333 C 36.211 53.878,27.675 53.812,27.037 54.259 " stroke="none" fill="#8ccc0c" fill-rule="evenodd"></path><path id="path1" d="M16.365 66.006 C 15.819 66.515,15.791 75.291,16.333 75.833 C 16.651 76.151,16.889 76.167,21.250 76.167 C 25.611 76.167,25.849 76.151,26.167 75.833 C 26.709 75.291,26.681 66.515,26.135 66.006 C 25.569 65.479,16.931 65.479,16.365 66.006 " stroke="none" fill="#2cd4c4" fill-rule="evenodd"></path><path id="path2" d="M258.122 26.434 C 258.066 26.489,250.348 26.545,240.969 26.559 L 223.917 26.583 222.583 27.049 C 221.850 27.305,221.113 27.590,220.946 27.683 C 220.779 27.776,220.329 28.012,219.946 28.208 C 216.152 30.154,213.684 34.140,213.316 38.917 C 213.227 40.079,213.181 55.878,213.206 76.640 L 213.250 112.363 213.634 112.673 C 213.992 112.963,214.408 112.984,219.852 112.984 C 225.769 112.984,226.327 112.932,226.616 112.352 C 226.690 112.204,226.787 96.821,226.833 78.167 L 226.917 44.250 227.276 43.341 C 227.734 42.184,229.016 40.861,230.104 40.423 C 230.879 40.111,231.456 40.093,242.622 40.037 L 254.327 39.978 255.725 40.414 C 259.667 41.642,259.494 40.765,259.497 59.533 C 259.500 75.600,259.499 75.621,258.630 77.034 C 257.213 79.338,256.953 79.383,244.750 79.442 C 239.158 79.470,234.429 79.494,234.240 79.496 C 233.277 79.507,233.296 79.374,233.296 86.222 C 233.296 91.022,233.345 92.564,233.505 92.756 C 233.690 92.979,235.394 93.003,247.899 92.962 L 262.083 92.915 263.333 92.528 C 265.151 91.965,267.391 90.846,268.390 90.000 C 269.707 88.887,271.667 86.502,271.667 86.014 C 271.667 85.925,271.818 85.596,272.002 85.284 C 272.187 84.971,272.540 84.010,272.788 83.149 L 273.237 81.583 273.294 60.333 C 273.335 45.111,273.298 38.800,273.164 38.083 C 272.902 36.681,272.379 35.021,271.993 34.368 C 271.814 34.063,271.667 33.743,271.667 33.655 C 271.667 32.730,268.197 29.169,266.250 28.097 C 264.026 26.871,258.761 25.794,258.122 26.434 M10.800 26.662 C 9.897 26.781,8.505 27.238,7.417 27.772 C 3.952 29.470,1.757 32.015,0.438 35.861 L 0.000 37.139 0.000 59.734 L 0.000 82.328 0.489 83.789 C 1.901 88.006,4.829 90.940,9.148 92.467 L 10.417 92.915 21.608 92.963 C 31.698 93.006,32.825 92.985,33.066 92.744 C 33.302 92.508,33.333 91.742,33.333 86.242 L 33.333 80.008 32.918 79.735 C 32.552 79.496,31.642 79.459,25.293 79.426 C 16.740 79.383,16.036 79.248,14.678 77.400 C 13.551 75.867,13.583 76.399,13.583 59.583 C 13.583 42.887,13.550 43.453,14.609 42.168 C 16.321 40.090,16.362 40.083,26.583 40.083 C 36.528 40.083,36.537 40.085,38.152 41.700 C 39.794 43.342,39.667 40.991,39.667 69.669 C 39.667 97.258,39.725 95.671,38.648 97.243 C 37.350 99.138,37.007 99.186,24.464 99.221 C 14.522 99.248,13.826 99.269,13.548 99.547 C 13.146 99.949,13.085 112.250,13.483 112.729 C 13.697 112.988,14.811 113.005,28.149 112.961 L 42.583 112.912 43.750 112.526 C 48.681 110.894,51.552 107.954,52.894 103.167 L 53.338 101.583 53.294 69.250 L 53.250 36.917 52.791 35.667 C 51.990 33.484,51.154 32.108,49.722 30.616 C 48.905 29.764,47.157 28.333,46.933 28.333 C 46.889 28.333,46.576 28.170,46.238 27.971 C 45.901 27.772,45.015 27.380,44.270 27.101 L 42.917 26.593 27.333 26.565 C 18.762 26.549,11.323 26.592,10.800 26.662 M71.083 26.672 C 66.236 27.285,62.141 30.866,60.452 35.968 L 59.917 37.583 59.917 65.016 C 59.917 88.022,59.954 92.493,60.145 92.724 C 60.466 93.111,72.568 93.147,73.093 92.763 C 73.410 92.532,73.418 92.041,73.500 68.472 L 73.583 44.417 73.942 43.479 C 74.268 42.628,74.628 42.048,75.083 41.644 C 76.589 40.307,77.347 40.134,82.082 40.044 C 84.282 40.002,86.213 39.898,86.374 39.812 C 86.645 39.666,86.667 39.188,86.667 33.240 L 86.667 26.825 86.239 26.663 C 85.738 26.472,72.600 26.480,71.083 26.672 M104.225 26.676 C 99.754 27.259,95.586 30.981,93.878 35.917 L 93.417 37.250 93.417 59.750 L 93.417 82.250 93.857 83.594 C 94.358 85.123,95.180 86.832,95.570 87.155 C 95.715 87.276,95.833 87.465,95.833 87.575 C 95.833 88.625,99.993 91.577,102.737 92.476 L 104.083 92.917 120.000 92.917 L 135.917 92.917 137.370 92.445 C 138.887 91.953,140.485 91.170,140.836 90.747 C 140.948 90.611,141.131 90.500,141.242 90.500 C 142.243 90.500,145.189 86.424,146.119 83.750 L 146.583 82.417 146.583 59.750 L 146.583 37.083 146.143 35.740 C 145.741 34.514,144.915 32.703,144.664 32.500 C 144.608 32.454,144.329 32.079,144.045 31.667 C 142.340 29.188,138.830 27.062,135.792 26.667 C 134.329 26.477,105.690 26.485,104.225 26.676 M153.806 26.612 C 153.653 26.653,153.475 26.813,153.410 26.968 C 153.217 27.427,153.326 81.981,153.521 82.750 C 154.762 87.629,158.002 91.032,162.833 92.529 L 164.083 92.917 180.000 92.917 L 195.917 92.917 197.459 92.373 C 200.045 91.462,204.167 88.408,204.167 87.403 C 204.167 87.273,204.225 87.167,204.296 87.167 C 204.532 87.167,205.803 84.436,206.196 83.083 L 206.583 81.750 206.583 54.383 C 206.583 32.163,206.543 26.976,206.367 26.800 C 206.139 26.572,195.006 26.375,193.890 26.580 C 192.969 26.749,193.000 25.883,193.000 51.067 C 193.000 77.106,193.055 75.835,191.865 77.325 C 190.283 79.306,189.626 79.417,179.500 79.414 C 169.983 79.411,170.147 79.434,168.550 77.866 C 166.770 76.118,166.935 78.714,166.833 50.833 C 166.785 37.496,166.727 26.565,166.706 26.542 C 166.636 26.468,154.093 26.536,153.806 26.612 M128.564 40.249 C 130.910 40.746,132.003 41.595,132.724 43.479 C 133.082 44.414,133.083 44.454,133.083 59.750 L 133.083 75.083 132.701 76.068 C 131.494 79.174,130.632 79.401,120.000 79.402 C 110.265 79.404,109.461 79.262,108.050 77.293 C 106.972 75.789,106.978 75.902,107.033 59.250 L 107.083 44.250 107.468 43.299 C 108.178 41.542,109.657 40.503,112.000 40.114 C 113.274 39.903,127.478 40.019,128.564 40.249 " stroke="none" fill="#444444" fill-rule="evenodd"></path><path id="path3" d="M16.375 43.279 C 15.788 43.688,15.784 52.663,16.370 53.074 C 16.684 53.293,17.439 53.333,21.250 53.333 C 27.158 53.333,26.500 53.980,26.500 48.176 L 26.500 43.538 26.089 43.269 C 25.484 42.873,16.945 42.882,16.375 43.279 " stroke="none" fill="#d4ec04" fill-rule="evenodd"></path><path id="path4" d="" stroke="none" fill="#907044" fill-rule="evenodd"></path></g></svg>